# ProBuilder 5.0.6
# https://unity3d.com/unity/features/worldbuilding/probuilder
# 09/12/2022 19:32:19

mtllib ./Arrow_2.mtl
o Arrow 2

g Arrow 2
v -6 0 0
v -6 0 -1
v -3 4 0
v -3 4 -1
v 0 0 -1
v 0 0 0
v -2 0 -1
v -2 0 0
v -4 0 0
v -4 0 -1
v -4.554111 -6 0
v -1.445889 -6 0
v -1.445889 -6 -1
v -4.554111 -6 -1

vt 0 -3.6
vt -1 -3.6
vt 0 1.4
vt -1 1.4
vt 1 0
vt 0 0
vt 1 5
vt 0 5
vt 0 -1
vt -2 -1
vt -2 0
vt -4 0
vt -6 0
vt -3 4
vt 6 0
vt 4 0
vt 2 0
vt 3 4
vt -6 -1
vt -4 -1
vt -4.554111 0
vt -1.445889 0
vt -1.445889 -1
vt -4.554111 -1
vt -1 -0.3678417
vt 0 -0.3678417
vt -1 -6.393374
vt 0 -6.393374
vt -4.554111 -6
vt -1.445889 -6
vt 0 0.1839209
vt 1 0.1839209
vt 0 -5.841611
vt 1 -5.841611
vt 1.445889 -6
vt 4.554111 -6

vn -0.8 0.6 0
vn 0.8 0.6 0
vn 0 -1 0
vn 0 0 1
vn 0 0 -1
vn -0.9957626 0.09196043 0
vn 0.9957626 0.09196043 0

usemtl ProBuilderDefault
f 3/14/4 8/11/4 6/6/4
f 3/14/4 9/12/4 8/11/4
f 1/13/4 9/12/4 3/14/4
f 4/18/5 10/16/5 2/15/5
f 7/17/5 10/16/5 4/18/5
f 5/6/5 7/17/5 4/18/5
f 3/3/1 4/4/1 2/2/1
f 2/2/1 1/1/1 3/3/1
f 4/7/2 3/8/2 6/6/2
f 6/6/2 5/5/2 4/7/2
f 6/6/3 8/11/3 7/10/3
f 7/10/3 5/9/3 6/6/3
f 9/12/3 1/13/3 2/19/3
f 2/19/3 10/20/3 9/12/3
f 12/22/3 11/21/3 14/24/3
f 14/24/3 13/23/3 12/22/3
f 11/28/6 9/26/6 10/25/6
f 10/25/6 14/27/6 11/28/6
f 12/30/4 8/11/4 9/12/4
f 9/12/4 11/29/4 12/30/4
f 13/34/7 7/32/7 8/31/7
f 8/31/7 12/33/7 13/34/7
f 14/36/5 10/16/5 7/17/5
f 7/17/5 13/35/5 14/36/5

