# ProBuilder 5.0.6
# https://unity3d.com/unity/features/worldbuilding/probuilder
# 09/12/2022 19:31:50

mtllib ./Arrow_1.mtl
o Arrow 1

g Arrow 1
v -6 0 0
v -6 0 -1
v -3 4 0
v -3 4 -1
v 0 0 -1
v 0 0 0
v -2 0 -1
v -2 0 0
v -4 0 0
v -4 0 -1
v -4 -6 0
v -2 -6 0
v -2 -6 -1
v -4 -6 -1

vt 0 -3.6
vt -1 -3.6
vt 0 1.4
vt -1 1.4
vt 1 0
vt 0 0
vt 1 5
vt 0 5
vt 0 -1
vt -2 -1
vt -2 0
vt -4 0
vt -6 0
vt -3 4
vt 6 0
vt 4 0
vt 2 0
vt 3 4
vt -6 -1
vt -4 -1
vt -1 0
vt -1 -6
vt 0 -6
vt -4 -6
vt -2 -6
vt 1 -6
vt 2 -6
vt 4 -6

vn -0.8 0.6 0
vn 0.8 0.6 0
vn 0 -1 0
vn 0 0 1
vn 0 0 -1
vn -1 0 0
vn 1 0 0

usemtl ProBuilderDefault
f 3/14/4 8/11/4 6/6/4
f 3/14/4 9/12/4 8/11/4
f 1/13/4 9/12/4 3/14/4
f 4/18/5 10/16/5 2/15/5
f 7/17/5 10/16/5 4/18/5
f 5/6/5 7/17/5 4/18/5
f 3/3/1 4/4/1 2/2/1
f 2/2/1 1/1/1 3/3/1
f 4/7/2 3/8/2 6/6/2
f 6/6/2 5/5/2 4/7/2
f 6/6/3 8/11/3 7/10/3
f 7/10/3 5/9/3 6/6/3
f 9/12/3 1/13/3 2/19/3
f 2/19/3 10/20/3 9/12/3
f 12/11/3 11/12/3 14/20/3
f 14/20/3 13/10/3 12/11/3
f 11/23/6 9/6/6 10/21/6
f 10/21/6 14/22/6 11/23/6
f 12/25/4 8/11/4 9/12/4
f 9/12/4 11/24/4 12/25/4
f 13/26/7 7/5/7 8/6/7
f 8/6/7 12/23/7 13/26/7
f 14/28/5 10/16/5 7/17/5
f 7/17/5 13/27/5 14/28/5

